<svg width="21" height="21" viewBox="0 0 21 21" fill="none" xmlns="http://www.w3.org/2000/svg">
<path fill-rule="evenodd" clip-rule="evenodd" d="M10.7184 2.19556C6.12757 2.19556 2.40674 5.91639 2.40674 10.5072C2.40674 14.1789 4.78757 17.2947 8.0909 18.3947C8.50674 18.4697 8.65674 18.2139 8.65674 17.9939C8.65674 17.7964 8.65007 17.2731 8.64757 16.5806C6.33507 17.0822 5.84674 15.4656 5.84674 15.4656C5.47007 14.5056 4.92424 14.2497 4.92424 14.2497C4.17007 13.7339 4.98174 13.7456 4.98174 13.7456C5.81674 13.8039 6.25424 14.6022 6.25424 14.6022C6.9959 15.8722 8.2009 15.5056 8.67257 15.2931C8.7484 14.7556 8.96507 14.3889 9.20174 14.1814C7.35674 13.9722 5.41674 13.2589 5.41674 10.0731C5.41674 9.16722 5.74091 8.42389 6.27007 7.84389C6.1859 7.63306 5.89841 6.78722 6.35257 5.64389C6.35257 5.64389 7.05007 5.41972 8.63757 6.49472C9.31557 6.31028 10.0149 6.21614 10.7176 6.21472C11.4202 6.21586 12.1196 6.31001 12.7976 6.49472C14.3859 5.41889 15.0826 5.64389 15.0826 5.64389C15.5367 6.78722 15.2517 7.63306 15.1651 7.84389C15.6984 8.42389 16.0184 9.16639 16.0184 10.0731C16.0184 13.2672 14.0767 13.9689 12.2251 14.1747C12.5209 14.4314 12.7876 14.9381 12.7876 15.7131C12.7876 16.8247 12.7776 17.7214 12.7776 17.9939C12.7776 18.2164 12.9259 18.4747 13.3501 18.3931C16.6517 17.2914 19.0301 14.1781 19.0301 10.5072C19.0301 5.91639 15.3092 2.19556 10.7184 2.19556Z" fill="white"/>
</svg>
