<svg width="64" height="65" viewBox="0 0 64 65" fill="none" xmlns="http://www.w3.org/2000/svg">
<path opacity="0.2" d="M10 44.4663V18.4663C10 17.4054 10.4214 16.388 11.1716 15.6379C11.9217 14.8877 12.9391 14.4663 14 14.4663H50C51.0609 14.4663 52.0783 14.8877 52.8284 15.6379C53.5786 16.388 54 17.4054 54 18.4663V44.4663H10Z" fill="#696CFF"/>
<path d="M10 44.4663V18.4663C10 17.4054 10.4214 16.388 11.1716 15.6379C11.9217 14.8877 12.9391 14.4663 14 14.4663H50C51.0609 14.4663 52.0783 14.8877 52.8284 15.6379C53.5786 16.388 54 17.4054 54 18.4663V44.4663M36 22.4663H28M6 44.4663H58V48.4663C58 49.5272 57.5786 50.5446 56.8284 51.2947C56.0783 52.0449 55.0609 52.4663 54 52.4663H10C8.93913 52.4663 7.92172 52.0449 7.17157 51.2947C6.42143 50.5446 6 49.5272 6 48.4663V44.4663Z" stroke="#696CFF" stroke-width="2" stroke-linecap="round" stroke-linejoin="round"/>
</svg>
