<svg width="64" height="65" viewBox="0 0 64 65" fill="none" xmlns="http://www.w3.org/2000/svg">
<path opacity="0.2" d="M52.575 9.44123L5.97499 22.5662C5.57831 22.6747 5.2247 22.9028 4.96234 23.2195C4.69997 23.5361 4.54161 23.926 4.50881 24.3359C4.47602 24.7459 4.57039 25.1559 4.77907 25.5103C4.98775 25.8647 5.3006 26.1461 5.67499 26.3162L27.075 36.4412C27.4942 36.6354 27.8309 36.972 28.025 37.3912L38.15 58.7912C38.3201 59.1656 38.6016 59.4785 38.9559 59.6872C39.3103 59.8958 39.7204 59.9902 40.1303 59.9574C40.5402 59.9246 40.9301 59.7662 41.2468 59.5039C41.5634 59.2415 41.7915 58.8879 41.9 58.4912L55.025 11.8912C55.1245 11.5512 55.1306 11.1906 55.0428 10.8474C54.955 10.5041 54.7765 10.1908 54.5259 9.94028C54.2754 9.68975 53.9621 9.51123 53.6189 9.42342C53.2756 9.33562 52.9151 9.34177 52.575 9.44123Z" fill="#696CFF"/>
<path fill-rule="evenodd" clip-rule="evenodd" d="M53.8666 8.45462C53.3513 8.32282 52.8102 8.33156 52.2995 8.47988L52.2942 8.48144L5.71115 21.6016L5.70701 21.6028C5.11366 21.7659 4.5848 22.1076 4.19216 22.5815C3.79862 23.0565 3.56107 23.6413 3.51188 24.2562C3.46268 24.8711 3.60424 25.4862 3.91726 26.0177C4.22884 26.5468 4.69522 26.9675 5.25338 27.2231L26.6472 37.3452L26.6472 37.3452L26.6546 37.3486C26.8589 37.4432 27.0229 37.6072 27.1175 37.8115L27.1174 37.8115L27.1209 37.8189L37.243 59.2126C37.4985 59.7708 37.9192 60.2372 38.4484 60.5488C38.9799 60.8619 39.595 61.0034 40.2099 60.9542C40.8248 60.905 41.4096 60.6675 41.8846 60.2739C42.3586 59.8813 42.7002 59.3524 42.8634 58.759L42.8645 58.755L55.9847 12.1719L55.9862 12.1668C56.1346 11.656 56.1433 11.1149 56.0115 10.5996C55.8792 10.0825 55.6103 9.61055 55.2329 9.23317C54.8556 8.85579 54.3836 8.58688 53.8666 8.45462ZM52.846 10.4038L52.5749 9.44123L52.8556 10.401C53.0235 10.3519 53.2015 10.3489 53.3709 10.3922C53.5404 10.4356 53.695 10.5237 53.8187 10.6474C53.9424 10.7711 54.0305 10.9257 54.0739 11.0952C54.1172 11.2646 54.1142 11.4426 54.0651 11.6105L54.065 11.6105L54.0623 11.6201L40.9373 58.2201L40.9353 58.2275C40.8811 58.4258 40.767 58.6026 40.6087 58.7338C40.4503 58.865 40.2554 58.9442 40.0504 58.9606C39.8455 58.977 39.6404 58.9298 39.4632 58.8255C39.2861 58.7211 39.1454 58.5647 39.0603 58.3775L39.0538 58.3635L28.9323 36.971L28.9303 36.9667C28.9285 36.9629 28.9268 36.9591 28.925 36.9553L39.732 26.1483C40.1225 25.7578 40.1225 25.1246 39.732 24.7341C39.3415 24.3436 38.7083 24.3436 38.3178 24.7341L27.5108 35.5411C27.5069 35.5393 27.503 35.5375 27.4991 35.5357L6.10255 25.4123L6.0886 25.4058C5.9014 25.3208 5.74498 25.18 5.64064 25.0029C5.53629 24.8257 5.48911 24.6206 5.50551 24.4157C5.5219 24.2107 5.60109 24.0158 5.73227 23.8574C5.86345 23.6991 6.04025 23.5851 6.2386 23.5308L6.2386 23.5309L6.24598 23.5288L52.846 10.4038Z" fill="#696CFF"/>
</svg>
