<svg width="65" height="65" viewBox="0 0 65 65" fill="none" xmlns="http://www.w3.org/2000/svg">
<g id="User">
<path id="Vector" opacity="0.2" d="M32.4999 8.52881C27.6437 8.52739 22.9012 9.99922 18.899 12.7499C14.8969 15.5005 11.8233 19.4006 10.0844 23.9348C8.34542 28.4691 8.02291 33.4242 9.15945 38.1456C10.296 42.867 12.8381 47.1326 16.4499 50.3788C17.9549 47.4151 20.2511 44.9261 23.0841 43.1875C25.917 41.4489 29.176 40.5287 32.4999 40.5288C30.5221 40.5288 28.5887 39.9423 26.9442 38.8435C25.2997 37.7447 24.018 36.1829 23.2611 34.3556C22.5043 32.5284 22.3062 30.5177 22.6921 28.5779C23.0779 26.6381 24.0303 24.8563 25.4289 23.4577C26.8274 22.0592 28.6092 21.1068 30.549 20.721C32.4888 20.3351 34.4995 20.5331 36.3268 21.29C38.154 22.0469 39.7158 23.3286 40.8146 24.9731C41.9135 26.6176 42.4999 28.551 42.4999 30.5288C42.4999 33.181 41.4464 35.7245 39.571 37.5999C37.6956 39.4752 35.1521 40.5288 32.4999 40.5288C35.8238 40.5287 39.0829 41.4489 41.9158 43.1875C44.7487 44.9261 47.045 47.4151 48.5499 50.3788C52.1618 47.1326 54.7039 42.867 55.8404 38.1456C56.977 33.4242 56.6545 28.4691 54.9155 23.9348C53.1766 19.4006 50.103 15.5005 46.1008 12.7499C42.0987 9.99922 37.3562 8.52739 32.4999 8.52881Z" fill="#71DD37"/>
<path id="Vector_2" d="M32.5 40.5288C38.0228 40.5288 42.5 36.0517 42.5 30.5288C42.5 25.006 38.0228 20.5288 32.5 20.5288C26.9772 20.5288 22.5 25.006 22.5 30.5288C22.5 36.0517 26.9772 40.5288 32.5 40.5288ZM32.5 40.5288C29.1759 40.5288 25.9168 41.4477 23.0839 43.1866C20.2509 44.9255 17.9548 47.4149 16.45 50.3788M32.5 40.5288C35.8241 40.5288 39.0832 41.4477 41.9161 43.1866C44.7491 44.9255 47.0452 47.4149 48.55 50.3788M56.5 32.5288C56.5 45.7836 45.7548 56.5288 32.5 56.5288C19.2452 56.5288 8.5 45.7836 8.5 32.5288C8.5 19.274 19.2452 8.52881 32.5 8.52881C45.7548 8.52881 56.5 19.274 56.5 32.5288Z" stroke="#71DD37" stroke-width="2" stroke-linecap="round" stroke-linejoin="round"/>
</g>
</svg>
