<svg width="64" height="65" viewBox="0 0 64 65" fill="none" xmlns="http://www.w3.org/2000/svg">
<path opacity="0.2" d="M13.625 50.8413C11.325 48.5413 12.85 43.7163 11.675 40.8913C10.5 38.0663 6 35.5913 6 32.4663C6 29.3413 10.45 26.9663 11.675 24.0413C12.9 21.1163 11.325 16.3913 13.625 14.0913C15.925 11.7913 20.75 13.3163 23.575 12.1413C26.4 10.9663 28.875 6.46631 32 6.46631C35.125 6.46631 37.5 10.9163 40.425 12.1413C43.35 13.3663 48.075 11.7913 50.375 14.0913C52.675 16.3913 51.15 21.2163 52.325 24.0413C53.5 26.8663 58 29.3413 58 32.4663C58 35.5913 53.55 37.9663 52.325 40.8913C51.1 43.8163 52.675 48.5413 50.375 50.8413C48.075 53.1413 43.25 51.6163 40.425 52.7913C37.6 53.9663 35.125 58.4663 32 58.4663C28.875 58.4663 26.5 54.0163 23.575 52.7913C20.65 51.5663 15.925 53.1413 13.625 50.8413Z" fill="#696CFF"/>
<path d="M43 26.4663L28.325 40.4663L21 33.4663M13.625 50.8413C11.325 48.5413 12.85 43.7163 11.675 40.8913C10.5 38.0663 6 35.5913 6 32.4663C6 29.3413 10.45 26.9663 11.675 24.0413C12.9 21.1163 11.325 16.3913 13.625 14.0913C15.925 11.7913 20.75 13.3163 23.575 12.1413C26.4 10.9663 28.875 6.46631 32 6.46631C35.125 6.46631 37.5 10.9163 40.425 12.1413C43.35 13.3663 48.075 11.7913 50.375 14.0913C52.675 16.3913 51.15 21.2163 52.325 24.0413C53.5 26.8663 58 29.3413 58 32.4663C58 35.5913 53.55 37.9663 52.325 40.8913C51.1 43.8163 52.675 48.5413 50.375 50.8413C48.075 53.1413 43.25 51.6163 40.425 52.7913C37.6 53.9663 35.125 58.4663 32 58.4663C28.875 58.4663 26.5 54.0163 23.575 52.7913C20.65 51.5663 15.925 53.1413 13.625 50.8413Z" stroke="#696CFF" stroke-width="2" stroke-linecap="round" stroke-linejoin="round"/>
</svg>
