<svg width="18" height="19" viewBox="0 0 18 19" fill="none" xmlns="http://www.w3.org/2000/svg">
<g clip-path="url(#clip0_1833_185630)">
<path d="M17.5869 6.33973C17.5774 5.62706 17.444 4.9215 17.1926 4.25456C16.9747 3.69202 16.6418 3.18112 16.2152 2.75453C15.7886 2.32793 15.2776 1.995 14.7151 1.77703C14.0568 1.5299 13.3613 1.39627 12.6582 1.38183C11.753 1.34137 11.466 1.33008 9.16819 1.33008C6.87039 1.33008 6.57586 1.33008 5.67725 1.38183C4.97451 1.39637 4.27932 1.53 3.62127 1.77703C3.05863 1.99485 2.54765 2.32772 2.12103 2.75434C1.69442 3.18096 1.36155 3.69193 1.14373 4.25456C0.896101 4.91242 0.76276 5.60776 0.749471 6.31056C0.70901 7.2167 0.696777 7.50368 0.696777 9.8015C0.696777 12.0993 0.696777 12.3928 0.749471 13.2924C0.763585 13.9963 0.89626 14.6907 1.14373 15.3503C1.36192 15.9128 1.69503 16.4236 2.1218 16.85C2.54855 17.2765 3.05957 17.6091 3.6222 17.8269C4.27846 18.084 4.97377 18.2272 5.67819 18.2504C6.58433 18.2908 6.87133 18.303 9.16913 18.303C11.4669 18.303 11.7615 18.303 12.6601 18.2504C13.3632 18.2365 14.0587 18.1032 14.717 17.8561C15.2794 17.6378 15.7902 17.3048 16.2167 16.8782C16.6433 16.4517 16.9763 15.941 17.1945 15.3785C17.442 14.7198 17.5746 14.0254 17.5888 13.3207C17.6293 12.4155 17.6414 12.1285 17.6414 9.82973C17.6396 7.53191 17.6396 7.24021 17.5869 6.33973ZM9.16255 14.1468C6.75935 14.1468 4.81251 12.2 4.81251 9.79679C4.81251 7.39359 6.75935 5.44676 9.16255 5.44676C10.3163 5.44676 11.4227 5.90506 12.2385 6.72085C13.0543 7.53664 13.5126 8.64309 13.5126 9.79679C13.5126 10.9505 13.0543 12.057 12.2385 12.8727C11.4227 13.6885 10.3163 14.1468 9.16255 14.1468ZM13.6857 6.3002C13.5525 6.30033 13.4206 6.27417 13.2974 6.22325C13.1743 6.17231 13.0624 6.09759 12.9682 6.00338C12.874 5.90917 12.7992 5.79729 12.7483 5.67417C12.6974 5.55105 12.6712 5.41909 12.6713 5.28585C12.6713 5.15271 12.6976 5.02087 12.7485 4.89786C12.7994 4.77485 12.8742 4.66308 12.9683 4.56893C13.0625 4.47479 13.1743 4.4001 13.2973 4.34915C13.4202 4.2982 13.5521 4.27197 13.6853 4.27197C13.8184 4.27197 13.9503 4.2982 14.0732 4.34915C14.1962 4.4001 14.3081 4.47479 14.4022 4.56893C14.4963 4.66308 14.571 4.77485 14.622 4.89786C14.6729 5.02087 14.6991 5.15271 14.6991 5.28585C14.6991 5.84666 14.2456 6.3002 13.6857 6.3002Z" fill="white"/>
<path d="M9.16296 12.6226C10.7236 12.6226 11.9887 11.3575 11.9887 9.79688C11.9887 8.23629 10.7236 6.97119 9.16296 6.97119C7.60238 6.97119 6.33728 8.23629 6.33728 9.79688C6.33728 11.3575 7.60238 12.6226 9.16296 12.6226Z" fill="white"/>
</g>
<defs>
<clipPath id="clip0_1833_185630">
<rect width="16.9412" height="18" fill="white" transform="translate(0.696777 0.528809)"/>
</clipPath>
</defs>
</svg>
