<svg width="64" height="65" viewBox="0 0 64 65" fill="none" xmlns="http://www.w3.org/2000/svg">
<path opacity="0.2" d="M55.875 14.4663H8.125C6.95139 14.4663 6 15.4177 6 16.5913V48.3413C6 49.5149 6.95139 50.4663 8.125 50.4663H55.875C57.0486 50.4663 58 49.5149 58 48.3413V16.5913C58 15.4177 57.0486 14.4663 55.875 14.4663Z" fill="#696CFF"/>
<path fill-rule="evenodd" clip-rule="evenodd" d="M7 16.5913C7 15.97 7.50368 15.4663 8.125 15.4663H55.875C56.4963 15.4663 57 15.97 57 16.5913V48.3413C57 48.9626 56.4963 49.4663 55.875 49.4663H8.125C7.50368 49.4663 7 48.9626 7 48.3413V16.5913ZM8.125 13.4663C6.39911 13.4663 5 14.8654 5 16.5913V48.3413C5 50.0672 6.39911 51.4663 8.125 51.4663H55.875C57.6009 51.4663 59 50.0672 59 48.3413V16.5913C59 14.8654 57.6009 13.4663 55.875 13.4663H8.125ZM14 23.4663C13.4477 23.4663 13 23.914 13 24.4663C13 25.0186 13.4477 25.4663 14 25.4663H50C50.5523 25.4663 51 25.0186 51 24.4663C51 23.914 50.5523 23.4663 50 23.4663H14ZM14 31.4663C13.4477 31.4663 13 31.914 13 32.4663C13 33.0186 13.4477 33.4663 14 33.4663H50C50.5523 33.4663 51 33.0186 51 32.4663C51 31.914 50.5523 31.4663 50 31.4663H14ZM13 40.4663C13 39.914 13.4477 39.4663 14 39.4663H16C16.5523 39.4663 17 39.914 17 40.4663C17 41.0186 16.5523 41.4663 16 41.4663H14C13.4477 41.4663 13 41.0186 13 40.4663ZM24 39.4663C23.4477 39.4663 23 39.914 23 40.4663C23 41.0186 23.4477 41.4663 24 41.4663H40C40.5523 41.4663 41 41.0186 41 40.4663C41 39.914 40.5523 39.4663 40 39.4663H24ZM47 40.4663C47 39.914 47.4477 39.4663 48 39.4663H50C50.5523 39.4663 51 39.914 51 40.4663C51 41.0186 50.5523 41.4663 50 41.4663H48C47.4477 41.4663 47 41.0186 47 40.4663Z" fill="#696CFF"/>
</svg>
