<svg width="21" height="21" viewBox="0 0 21 21" fill="none" xmlns="http://www.w3.org/2000/svg">
<path d="M17.0576 7.19293C17.0684 7.33876 17.0684 7.48376 17.0684 7.62876C17.0684 12.0663 13.6909 17.1796 7.5184 17.1796C5.61674 17.1796 3.85007 16.6288 2.3634 15.6721C2.6334 15.7029 2.8934 15.7138 3.17424 15.7138C4.68506 15.7174 6.15311 15.2122 7.34174 14.2796C6.64125 14.2669 5.96222 14.0358 5.39943 13.6185C4.83665 13.2013 4.41822 12.6187 4.20257 11.9521C4.41007 11.9829 4.6184 12.0038 4.83674 12.0038C5.13757 12.0038 5.44007 11.9621 5.7209 11.8896C4.9607 11.7361 4.27713 11.3241 3.78642 10.7235C3.29571 10.1229 3.02815 9.37097 3.02924 8.59543V8.55376C3.47674 8.80293 3.9959 8.95876 4.5459 8.9796C4.08514 8.67342 3.70734 8.25795 3.44619 7.77026C3.18504 7.28256 3.04866 6.73781 3.04924 6.1846C3.04924 5.56126 3.21507 4.9896 3.5059 4.49126C4.34935 5.52878 5.40132 6.37756 6.59368 6.98265C7.78604 7.58773 9.0922 7.93561 10.4276 8.00376C10.3759 7.75376 10.3442 7.4946 10.3442 7.2346C10.344 6.79373 10.4307 6.35715 10.5993 5.9498C10.7679 5.54245 11.0152 5.17233 11.3269 4.86059C11.6386 4.54885 12.0088 4.30161 12.4161 4.133C12.8235 3.96438 13.26 3.87771 13.7009 3.87793C14.6676 3.87793 15.5401 4.28293 16.1534 4.93793C16.9049 4.79261 17.6255 4.51828 18.2834 4.1271C18.0329 4.90278 17.5082 5.56052 16.8076 5.9771C17.4741 5.90108 18.1254 5.72581 18.7401 5.4571C18.281 6.12635 17.7122 6.71322 17.0576 7.19293Z" fill="white"/>
</svg>
