<svg width="65" height="65" viewBox="0 0 65 65" fill="none" xmlns="http://www.w3.org/2000/svg">
<path opacity="0.2" d="M14.125 50.9038C11.825 48.6038 13.35 43.7788 12.175 40.9538C11 38.1288 6.5 35.6538 6.5 32.5288C6.5 29.4038 10.95 27.0288 12.175 24.1038C13.4 21.1788 11.825 16.4538 14.125 14.1538C16.425 11.8538 21.25 13.3788 24.075 12.2038C26.9 11.0288 29.375 6.52881 32.5 6.52881C35.625 6.52881 38 10.9788 40.925 12.2038C43.85 13.4288 48.575 11.8538 50.875 14.1538C53.175 16.4538 51.65 21.2788 52.825 24.1038C54 26.9288 58.5 29.4038 58.5 32.5288C58.5 35.6538 54.05 38.0288 52.825 40.9538C51.6 43.8788 53.175 48.6038 50.875 50.9038C48.575 53.2038 43.75 51.6788 40.925 52.8538C38.1 54.0288 35.625 58.5288 32.5 58.5288C29.375 58.5288 27 54.0788 24.075 52.8538C21.15 51.6288 16.425 53.2038 14.125 50.9038Z" fill="#FFAB00"/>
<path d="M43.5 26.5288L28.825 40.5288L21.5 33.5288M14.125 50.9038C11.825 48.6038 13.35 43.7788 12.175 40.9538C11 38.1288 6.5 35.6538 6.5 32.5288C6.5 29.4038 10.95 27.0288 12.175 24.1038C13.4 21.1788 11.825 16.4538 14.125 14.1538C16.425 11.8538 21.25 13.3788 24.075 12.2038C26.9 11.0288 29.375 6.52881 32.5 6.52881C35.625 6.52881 38 10.9788 40.925 12.2038C43.85 13.4288 48.575 11.8538 50.875 14.1538C53.175 16.4538 51.65 21.2788 52.825 24.1038C54 26.9288 58.5 29.4038 58.5 32.5288C58.5 35.6538 54.05 38.0288 52.825 40.9538C51.6 43.8788 53.175 48.6038 50.875 50.9038C48.575 53.2038 43.75 51.6788 40.925 52.8538C38.1 54.0288 35.625 58.5288 32.5 58.5288C29.375 58.5288 27 54.0788 24.075 52.8538C21.15 51.6288 16.425 53.2038 14.125 50.9038Z" stroke="#FFAB00" stroke-width="2" stroke-linecap="round" stroke-linejoin="round"/>
</svg>
