<svg width="65" height="65" viewBox="0 0 65 65" fill="none" xmlns="http://www.w3.org/2000/svg">
<path opacity="0.2" d="M46.5001 10.5288H32.5001L20.2251 26.5288L32.5001 56.5288L60.5001 26.5288L46.5001 10.5288Z" fill="#03C3EC"/>
<path d="M18.5 10.5288H46.5L60.5 26.5288L32.5 56.5288L4.5 26.5288L18.5 10.5288Z" stroke="#03C3EC" stroke-width="2" stroke-linecap="round" stroke-linejoin="round"/>
<path fill-rule="evenodd" clip-rule="evenodd" d="M33.2934 9.92012C33.1042 9.67343 32.8109 9.52881 32.5 9.52881C32.1891 9.52881 31.8958 9.67343 31.7066 9.92012L19.7318 25.5288H4.5C3.94772 25.5288 3.5 25.9765 3.5 26.5288C3.5 27.0811 3.94772 27.5288 4.5 27.5288H19.5537L31.5745 56.9075C31.7282 57.2833 32.094 57.5288 32.5 57.5288C32.906 57.5288 33.2718 57.2833 33.4255 56.9075L45.4463 27.5288H60.5C61.0523 27.5288 61.5 27.0811 61.5 26.5288C61.5 25.9765 61.0523 25.5288 60.5 25.5288H45.2682L33.2934 9.92012ZM42.7474 25.5288L32.5 12.1717L22.2526 25.5288H42.7474ZM21.7146 27.5288L32.5 53.8881L43.2854 27.5288H21.7146Z" fill="#03C3EC"/>
</svg>
