<svg width="64" height="64" viewBox="0 0 64 64" fill="none" xmlns="http://www.w3.org/2000/svg">
<path opacity="0.2" fill-rule="evenodd" clip-rule="evenodd" d="M52.8934 36.9867L45.1661 27.709C45.4614 33.3937 44.0587 40.0137 39.7274 47.5687L47.1102 53.475C47.3728 53.6835 47.6842 53.8215 48.0149 53.8759C48.3457 53.9303 48.6849 53.8994 49.0004 53.786C49.3159 53.6726 49.5972 53.4806 49.8177 53.228C50.0381 52.9755 50.1905 52.6709 50.2602 52.343L53.2872 38.6602C53.3602 38.3701 53.3625 38.0667 53.294 37.7755C53.2255 37.4843 53.0881 37.2138 52.8934 36.9867ZM10.959 37.1344L18.6864 27.8813C18.3911 33.566 19.7938 40.1859 24.1251 47.7164L16.7422 53.6227C16.4814 53.8311 16.1718 53.9698 15.8426 54.0256C15.5134 54.0814 15.1754 54.0526 14.8604 53.9419C14.5453 53.8311 14.2637 53.6421 14.0418 53.3925C13.82 53.143 13.6653 52.8411 13.5922 52.5152L10.5653 38.8078C10.4923 38.5177 10.49 38.2144 10.5585 37.9232C10.627 37.632 10.7644 37.3615 10.959 37.1344Z" fill="#696CFF"/>
<path fill-rule="evenodd" clip-rule="evenodd" d="M30.1373 4.56417C30.661 4.13034 31.3197 3.89282 31.9999 3.89282C32.6817 3.89282 33.3419 4.1314 33.8661 4.56708C36.2461 6.5048 41.3981 11.3124 44.2413 18.7028C45.231 21.2754 45.9359 24.1485 46.1526 27.3062L53.8054 36.4894C54.1015 36.8368 54.3105 37.2498 54.4151 37.6941C54.519 38.1357 54.5167 38.5956 54.4085 39.0361L51.3844 52.7309L51.3837 52.734C51.2735 53.2253 51.0402 53.6805 50.7057 54.0569C50.3712 54.4332 49.9465 54.7183 49.4715 54.8853C48.9964 55.0523 48.4867 55.0957 47.9903 55.0115C47.4939 54.9273 47.027 54.7182 46.6337 54.4039L46.6332 54.4035L39.5243 48.7164H24.4758L17.3669 54.4035L17.3665 54.4039C16.9731 54.7182 16.5062 54.9273 16.0098 55.0115C15.5134 55.0957 15.0037 55.0523 14.5287 54.8853C14.0537 54.7183 13.6289 54.4332 13.2944 54.0569C12.9599 53.6805 12.7266 53.2253 12.6165 52.734L12.6158 52.7309L9.59162 39.0361C9.48345 38.5957 9.48117 38.1358 9.58509 37.6941C9.68969 37.2496 9.89886 36.8364 10.1952 36.489L17.7037 27.4979C17.9004 24.2604 18.619 21.3188 19.6398 18.6906C22.5111 11.2981 27.7301 6.49122 30.1373 4.56417ZM44.1834 27.8703C44.1674 27.7856 44.1625 27.6995 44.1686 27.6142C43.9794 24.5834 43.3088 21.8491 42.3746 19.4209C39.7071 12.4872 34.8477 7.94455 32.5992 6.11468L32.5893 6.10666L32.5894 6.1066C32.424 5.96848 32.2154 5.89282 31.9999 5.89282C31.7845 5.89282 31.5759 5.96848 31.4105 6.1066L31.3942 6.11994C29.1222 7.93749 24.1977 12.4799 21.5041 19.4147C20.5347 21.9107 19.8484 24.7306 19.6863 27.8638C19.6871 27.9087 19.6849 27.9536 19.6796 27.9984C19.4292 33.348 20.7083 39.6051 24.7062 46.7164H39.2879C43.2365 39.5474 44.4691 33.2477 44.1834 27.8703ZM52.2729 37.7746L46.2018 30.4892C46.0153 35.5301 44.567 41.2065 41.1592 47.4631L47.8821 52.8414C48.0105 52.944 48.1628 53.0122 48.3248 53.0397C48.4868 53.0672 48.6531 53.053 48.8081 52.9985C48.9631 52.944 49.1017 52.851 49.2109 52.7282C49.3197 52.6057 49.3957 52.4576 49.4318 52.2978L49.4321 52.2965L52.4584 38.5922C52.4605 38.5827 52.4627 38.5733 52.4651 38.5639C52.499 38.4289 52.5001 38.2877 52.4682 38.1522C52.4363 38.0167 52.3724 37.8908 52.2818 37.7852L52.2728 37.7746L52.2729 37.7746ZM17.6801 30.6463L11.7266 37.7754L11.7184 37.7852L11.7183 37.7852C11.6277 37.8908 11.5638 38.0167 11.5319 38.1522C11.5 38.2877 11.5011 38.4289 11.5351 38.5639C11.5374 38.5733 11.5397 38.5827 11.5418 38.5922L14.568 52.2965L14.5683 52.2978C14.6044 52.4576 14.6804 52.6057 14.7893 52.7282C14.8984 52.851 15.037 52.944 15.192 52.9985C15.347 53.053 15.5133 53.0672 15.6753 53.0397C15.8373 53.0122 15.9897 52.944 16.118 52.8414L22.835 47.4678C19.3947 41.2766 17.9053 35.6511 17.6801 30.6463ZM27.0626 55.5914C27.0626 55.0391 27.5103 54.5914 28.0626 54.5914H35.9376C36.4899 54.5914 36.9376 55.0391 36.9376 55.5914C36.9376 56.1437 36.4899 56.5914 35.9376 56.5914H28.0626C27.5103 56.5914 27.0626 56.1437 27.0626 55.5914ZM34.9532 24.0914C34.9532 25.7224 33.631 27.0445 32.0001 27.0445C30.3691 27.0445 29.047 25.7224 29.047 24.0914C29.047 22.4604 30.3691 21.1383 32.0001 21.1383C33.631 21.1383 34.9532 22.4604 34.9532 24.0914Z" fill="#696CFF"/>
</svg>
