<svg width="64" height="65" viewBox="0 0 64 65" fill="none" xmlns="http://www.w3.org/2000/svg">
<path opacity="0.2" d="M31.9999 8.46631C27.1437 8.46489 22.4012 9.93672 18.399 12.6874C14.3969 15.438 11.3233 19.3381 9.58436 23.8723C7.84542 28.4066 7.52291 33.3617 8.65945 38.0831C9.79598 42.8045 12.3381 47.0701 15.9499 50.3163C17.4549 47.3526 19.7511 44.8636 22.5841 43.125C25.417 41.3864 28.676 40.4662 31.9999 40.4663C30.0221 40.4663 28.0887 39.8798 26.4442 38.781C24.7997 37.6822 23.518 36.1204 22.7611 34.2931C22.0043 32.4659 21.8062 30.4552 22.1921 28.5154C22.5779 26.5756 23.5303 24.7938 24.9289 23.3952C26.3274 21.9967 28.1092 21.0443 30.049 20.6585C31.9888 20.2726 33.9995 20.4706 35.8268 21.2275C37.654 21.9844 39.2158 23.2661 40.3146 24.9106C41.4135 26.5551 41.9999 28.4885 41.9999 30.4663C41.9999 33.1185 40.9464 35.662 39.071 37.5374C37.1956 39.4127 34.6521 40.4663 31.9999 40.4663C35.3238 40.4662 38.5829 41.3864 41.4158 43.125C44.2487 44.8636 46.545 47.3526 48.0499 50.3163C51.6618 47.0701 54.2039 42.8045 55.3404 38.0831C56.477 33.3617 56.1545 28.4066 54.4155 23.8723C52.6766 19.3381 49.603 15.438 45.6008 12.6874C41.5987 9.93672 36.8562 8.46489 31.9999 8.46631Z" fill="#696CFF"/>
<path d="M32 40.4663C37.5228 40.4663 42 35.9892 42 30.4663C42 24.9435 37.5228 20.4663 32 20.4663C26.4772 20.4663 22 24.9435 22 30.4663C22 35.9892 26.4772 40.4663 32 40.4663ZM32 40.4663C28.6759 40.4663 25.4168 41.3852 22.5839 43.1241C19.7509 44.863 17.4548 47.3524 15.95 50.3163M32 40.4663C35.3241 40.4663 38.5832 41.3852 41.4161 43.1241C44.2491 44.863 46.5452 47.3524 48.05 50.3163M56 32.4663C56 45.7211 45.2548 56.4663 32 56.4663C18.7452 56.4663 8 45.7211 8 32.4663C8 19.2115 18.7452 8.46631 32 8.46631C45.2548 8.46631 56 19.2115 56 32.4663Z" stroke="#696CFF" stroke-width="2" stroke-linecap="round" stroke-linejoin="round"/>
</svg>
